# xmcd
#
# Track frame offsets:
#	150
#	17941
#	32427
#	52472
#	68725
#	83770
#	99456
#	116616
#	133962
#	148350
#	164896
#	179273
#	193148
#	208084
#	220039
#	234862
#	251394
#	270475
#	286290
#	300294
#	316170
#
# Disc length: 4385
#
# Revision: 1
# Processed by: cddbd v1.5.1PL0 Copyright (c) Steve Scherf et al.
# Submitted via: dBpowerAMP V4.0
# Normalized: r0:DSETVAR1,TDELIM( - )
#
DISCID=38111f15
DTITLE=Various Artist - Зима 2004
DYEAR=2004
DGENRE=Pop
TTITLE0=Авраам Руссо - Знаю (rimix)
TTITLE1=Любаша - Снег
TTITLE2=Tarkan - Dudu
TTITLE3=Bosson - You opened my eyes (radio mix)
TTITLE4=Орбакайте - Свет твоей любви (mix)
TTITLE5=The Rusmus - In the shadows (mix)
TTITLE6=Мумий Троль - Медведица
TTITLE7=Plazma - Power of your spell
TTITLE8=Катя Лель - Муси-пуси
TTITLE9=Britney Spears feat. Madonna - Me against the music
TTITLE10=Benny Benassi - Satisfaction
TTITLE11=Жасмин - Да
TTITLE12=Dr. Kucho feat Jodie - Belmondo rulez 2.0 (It's all about you)
TTITLE13=Londonbeat - Where are you
TTITLE14=Сплин - Романс
TTITLE15=The underdog project - Winter Jam
TTITLE16=Чай вдвоем - Он не разлюбит
TTITLE17=Modern Talking - I'm no rockefeller
TTITLE18=Hi-Fi - Седьмой лепесток
TTITLE19=N'Evergreen - Since You've been gone (remix)
TTITLE20=Вячеслав Бутусов and Юпитер - Песня идущего домой
EXTD=Зима 2004
EXTT0=
EXTT1=
EXTT2=
EXTT3=
EXTT4=
EXTT5=
EXTT6=
EXTT7=
EXTT8=
EXTT9=
EXTT10=
EXTT11=
EXTT12=
EXTT13=
EXTT14=
EXTT15=
EXTT16=
EXTT17=
EXTT18=
EXTT19=
EXTT20=
PLAYORDER=
